<svg xmlns="http://www.w3.org/2000/svg" xmlns:xlink="http://www.w3.org/1999/xlink" id="Layer_1" x="0" y="0" baseProfile="tiny" overflow="visible" version="1.2" viewBox="0 0 1920 1080" xml:space="preserve"><switch><g><g><g><path fill="#1877F2" d="M371.09,643.05c-19.38,0-36.34-4.27-50.87-12.82c-14.54-8.55-25.79-20.56-33.77-36.05 c-7.98-15.48-11.97-33.67-11.97-54.58c0-15.77,2.28-29.97,6.84-42.61c4.56-12.63,11.07-23.46,19.52-32.49 c8.45-9.02,18.62-15.96,30.49-20.81c11.87-4.84,25.12-7.27,39.76-7.27c19.57,0,36.57,4.23,51.01,12.68 c14.44,8.46,25.65,20.38,33.63,35.77c7.98,15.39,11.97,33.54,11.97,54.44c0,15.77-2.28,30.02-6.84,42.75 c-4.56,12.73-11.07,23.65-19.52,32.77c-8.46,9.12-18.62,16.1-30.5,20.95C398.97,640.63,385.72,643.05,371.09,643.05z M371.09,611.7c12.35,0,22.84-2.85,31.49-8.55c8.64-5.7,15.29-13.96,19.95-24.79c4.65-10.83,6.98-23.75,6.98-38.76 c0-22.8-5.08-40.47-15.25-53.01c-10.17-12.54-24.56-18.81-43.18-18.81c-12.16,0-22.61,2.81-31.35,8.41 c-8.74,5.61-15.44,13.78-20.09,24.51c-4.66,10.74-6.98,23.7-6.98,38.9c0,22.61,5.13,40.28,15.39,53.01 C338.31,605.34,352.66,611.7,371.09,611.7z"/><path d="M574.86,643.05c-12.16,0-22.85-2.94-32.06-8.83c-9.22-5.89-16.39-14.29-21.52-25.22c-5.13-10.92-7.7-23.8-7.7-38.62 c0-15.01,2.56-27.88,7.7-38.62c5.13-10.73,12.3-19.05,21.52-24.94c9.21-5.89,19.9-8.83,32.06-8.83c11.59,0,21.7,2.85,30.35,8.55 c8.64,5.7,14.49,13.21,17.53,22.51h-3.14v-74.1c0-5.89,1.52-10.35,4.56-13.39c3.04-3.04,7.41-4.56,13.11-4.56 c5.7,0,10.12,1.52,13.25,4.56c3.13,3.04,4.7,7.51,4.7,13.39v169.29c0,5.89-1.52,10.4-4.56,13.54c-3.04,3.14-7.41,4.7-13.11,4.7 c-5.7,0-10.07-1.57-13.11-4.7c-3.04-3.13-4.56-7.65-4.56-13.54v-22.23l3.13,8.55c-2.85,9.88-8.65,17.77-17.38,23.65 C596.9,640.11,586.64,643.05,574.86,643.05z M584.83,615.98c7.03,0,13.2-1.71,18.53-5.13c5.32-3.42,9.45-8.5,12.4-15.25 c2.94-6.74,4.42-15.15,4.42-25.22c0-15.2-3.23-26.55-9.69-34.06c-6.46-7.5-15.01-11.26-25.65-11.26 c-7.03,0-13.21,1.67-18.53,4.99c-5.32,3.33-9.45,8.36-12.4,15.1c-2.95,6.75-4.42,15.15-4.42,25.22 c0,15.01,3.23,26.36,9.69,34.06C565.64,612.13,574.19,615.98,584.83,615.98z"/><path d="M729.9,472.34c-6.65,0-11.83-1.66-15.53-4.99c-3.71-3.32-5.56-7.93-5.56-13.82c0-6.08,1.85-10.73,5.56-13.96 c3.71-3.23,8.88-4.85,15.53-4.85c6.84,0,12.06,1.62,15.67,4.85c3.61,3.23,5.42,7.89,5.42,13.96c0,5.89-1.81,10.5-5.42,13.82 C741.96,470.68,736.74,472.34,729.9,472.34z M729.9,642.2c-5.7,0-10.07-1.71-13.11-5.13c-3.04-3.42-4.56-8.17-4.56-14.25v-104.6 c0-6.27,1.52-11.07,4.56-14.39c3.04-3.32,7.41-4.99,13.11-4.99c5.7,0,10.12,1.67,13.25,4.99c3.13,3.33,4.7,8.12,4.7,14.39v104.6 c0,6.08-1.52,10.83-4.56,14.25C740.25,640.49,735.78,642.2,729.9,642.2z"/><path d="M822.52,642.48c-5.7,0-10.07-1.57-13.11-4.7c-3.04-3.13-4.56-7.65-4.56-13.54V516.51c0-5.89,1.52-10.35,4.56-13.39 c3.04-3.04,7.31-4.56,12.83-4.56c5.51,0,9.78,1.52,12.83,4.56c3.04,3.04,4.56,7.51,4.56,13.39v19.38l-3.13-7.12 c4.18-10.07,10.69-17.71,19.52-22.94c8.83-5.22,18.85-7.84,30.07-7.84c11.21,0,20.42,2.09,27.64,6.27 c7.22,4.18,12.63,10.5,16.25,18.95c3.61,8.46,5.42,19.14,5.42,32.06v68.97c0,5.89-1.52,10.4-4.56,13.54 c-3.04,3.14-7.41,4.7-13.11,4.7s-10.12-1.57-13.25-4.7c-3.14-3.13-4.7-7.65-4.7-13.54v-67.26c0-10.83-2.04-18.71-6.13-23.66 c-4.09-4.94-10.4-7.41-18.95-7.41c-10.45,0-18.76,3.28-24.94,9.83c-6.18,6.55-9.26,15.25-9.26,26.08v62.42 C840.47,636.41,834.49,642.48,822.52,642.48z"/><path d="M1071.89,643.05c-11.78,0-22.09-2.94-30.92-8.83c-8.83-5.89-14.68-13.77-17.53-23.65l3.13-7.12v20.8 c0,5.89-1.52,10.4-4.56,13.54c-3.04,3.14-7.32,4.7-12.82,4.7c-5.7,0-10.07-1.57-13.11-4.7c-3.04-3.13-4.56-7.65-4.56-13.54 V454.95c0-5.89,1.52-10.35,4.56-13.39c3.04-3.04,7.41-4.56,13.11-4.56c5.7,0,10.12,1.52,13.25,4.56 c3.13,3.04,4.7,7.51,4.7,13.39v74.1h-3.42c3.04-9.31,8.93-16.81,17.67-22.51c8.74-5.7,18.9-8.55,30.49-8.55 c12.35,0,23.09,2.95,32.21,8.83c9.12,5.89,16.25,14.21,21.38,24.94c5.13,10.74,7.7,23.61,7.7,38.62 c0,14.82-2.56,27.69-7.7,38.62c-5.13,10.93-12.3,19.33-21.52,25.22C1094.74,640.11,1084.05,643.05,1071.89,643.05z M1061.92,615.98c7.03,0,13.2-1.71,18.53-5.13c5.32-3.42,9.45-8.5,12.4-15.25c2.94-6.74,4.42-15.15,4.42-25.22 c0-15.2-3.23-26.55-9.69-34.06c-6.46-7.5-15.01-11.26-25.65-11.26c-7.03,0-13.21,1.67-18.53,4.99 c-5.32,3.33-9.45,8.36-12.4,15.1c-2.95,6.75-4.42,15.15-4.42,25.22c0,15.01,3.23,26.36,9.69,34.06 C1042.72,612.13,1051.27,615.98,1061.92,615.98z"/><path d="M1246.02,643.05c-14.44,0-26.98-2.94-37.62-8.83c-10.64-5.89-18.91-14.29-24.79-25.22c-5.89-10.92-8.83-23.8-8.83-38.62 c0-11.21,1.66-21.23,4.99-30.07c3.32-8.83,8.12-16.43,14.39-22.8c6.27-6.36,13.77-11.21,22.51-14.54 c8.74-3.32,18.53-4.99,29.36-4.99c14.44,0,26.98,2.95,37.62,8.83c10.64,5.89,18.9,14.25,24.79,25.08 c5.89,10.83,8.83,23.66,8.83,38.47c0,11.21-1.67,21.28-4.99,30.21c-3.33,8.93-8.12,16.58-14.39,22.94 c-6.27,6.37-13.78,11.21-22.52,14.54C1266.64,641.39,1256.85,643.05,1246.02,643.05z M1246.02,615.98 c7.03,0,13.2-1.71,18.53-5.13c5.32-3.42,9.45-8.5,12.4-15.25c2.94-6.74,4.42-15.15,4.42-25.22c0-15.2-3.23-26.55-9.69-34.06 c-6.46-7.5-15.01-11.26-25.65-11.26c-7.03,0-13.21,1.67-18.53,4.99c-5.32,3.33-9.45,8.36-12.4,15.1 c-2.95,6.75-4.42,15.15-4.42,25.22c0,15.01,3.23,26.36,9.69,34.06C1226.83,612.13,1235.38,615.98,1246.02,615.98z"/><path d="M1430.13,643.05c-14.44,0-26.98-2.94-37.62-8.83c-10.64-5.89-18.91-14.29-24.79-25.22c-5.89-10.92-8.83-23.8-8.83-38.62 c0-11.21,1.66-21.23,4.99-30.07c3.32-8.83,8.12-16.43,14.39-22.8c6.27-6.36,13.77-11.21,22.51-14.54 c8.74-3.32,18.53-4.99,29.36-4.99c14.44,0,26.98,2.95,37.62,8.83c10.64,5.89,18.9,14.25,24.79,25.08 c5.89,10.83,8.83,23.66,8.83,38.47c0,11.21-1.67,21.28-4.99,30.21c-3.33,8.93-8.12,16.58-14.39,22.94 c-6.27,6.37-13.78,11.21-22.52,14.54C1450.74,641.39,1440.96,643.05,1430.13,643.05z M1430.13,615.98 c7.03,0,13.2-1.71,18.53-5.13c5.32-3.42,9.45-8.5,12.4-15.25c2.94-6.74,4.42-15.15,4.42-25.22c0-15.2-3.23-26.55-9.69-34.06 c-6.46-7.5-15.01-11.26-25.65-11.26c-7.03,0-13.21,1.67-18.53,4.99c-5.32,3.33-9.45,8.36-12.4,15.1 c-2.95,6.75-4.42,15.15-4.42,25.22c0,15.01,3.23,26.36,9.69,34.06C1410.94,612.13,1419.49,615.98,1430.13,615.98z"/><path d="M1568.35,642.48c-5.7,0-10.07-1.57-13.11-4.7c-3.04-3.13-4.56-7.65-4.56-13.54V454.95c0-5.89,1.52-10.35,4.56-13.39 c3.04-3.04,7.41-4.56,13.11-4.56c5.7,0,10.12,1.52,13.25,4.56c3.13,3.04,4.7,7.51,4.7,13.39v105.17h0.57l47.03-49.59 c3.8-3.8,7.12-6.74,9.97-8.83c2.85-2.09,6.74-3.13,11.69-3.13c4.94,0,8.69,1.28,11.26,3.85c2.57,2.57,3.85,5.66,3.85,9.26 c0,3.61-1.71,7.22-5.13,10.83l-49.59,52.44v-14.82l54.43,58.71c3.42,3.61,4.99,7.27,4.7,10.97s-1.85,6.75-4.7,9.12 c-2.85,2.37-6.46,3.56-10.83,3.56c-5.32,0-9.55-1.05-12.68-3.14c-3.14-2.09-6.6-5.22-10.4-9.4l-49.59-51.87h-0.57v46.17 C1586.31,636.41,1580.32,642.48,1568.35,642.48z"/></g></g><path fill="none" d="M359,583"/><line x1="463.57" x2="295.43" y1="420.6" y2="659.4" fill="none" stroke="#FFF" stroke-miterlimit="10" stroke-width="44"/></g></switch></svg>